name rise45.9887peak57.8056fall74.9286.mot
datacolumns 19
datarows 27
range 20.92661200000000 20.96992300000000
endheader
time	ground_force1_vx	ground_force1_vy	ground_force1_vz	ground_force1_px	ground_force1_py	ground_force1_pz	ground_force2_vx	ground_force2_vy	ground_force2_vz	ground_force2_px	ground_force2_py	ground_force2_pz	ground_torque1_x	ground_torque1_y	ground_torque1_z	ground_torque2_x	ground_torque2_y	ground_torque2_z	
20.92661200000000	14.29488900000000	727.03246600000000	42.89318900000000	0.21359800000000	0.00000000000000	0.12704500000000	0.00000000000000	0.00000000000000	0.00000000000000	0.00000000000000	0.00000000000000	0.00000000000000	0.00000000000000	14.54793000000000	0.00000000000000	0.00000000000000	0.00000000000000	0.00000000000000	
20.92825400000000	13.77115500000000	728.61801900000000	42.97076600000000	0.21248500000000	0.00000000000000	0.12703400000000	0.00000000000000	0.00000000000000	0.00000000000000	0.00000000000000	0.00000000000000	0.00000000000000	0.00000000000000	14.64700900000000	0.00000000000000	0.00000000000000	0.00000000000000	0.00000000000000	
20.92992400000000	13.23468800000000	730.20944099999997	43.05013400000000	0.21133600000000	0.00000000000000	0.12702400000000	0.00000000000000	0.00000000000000	0.00000000000000	0.00000000000000	0.00000000000000	0.00000000000000	0.00000000000000	14.74834900000000	0.00000000000000	0.00000000000000	0.00000000000000	0.00000000000000	
20.93158700000000	12.68593700000000	731.80483900000002	43.13109000000000	0.21015200000000	0.00000000000000	0.12701500000000	0.00000000000000	0.00000000000000	0.00000000000000	0.00000000000000	0.00000000000000	0.00000000000000	0.00000000000000	14.85178300000000	0.00000000000000	0.00000000000000	0.00000000000000	0.00000000000000	
20.93325200000000	12.12540100000000	733.40237100000002	43.21344400000000	0.20893500000000	0.00000000000000	0.12700800000000	0.00000000000000	0.00000000000000	0.00000000000000	0.00000000000000	0.00000000000000	0.00000000000000	0.00000000000000	14.95714600000000	0.00000000000000	0.00000000000000	0.00000000000000	0.00000000000000	
20.93492600000000	11.55362900000000	735.00025000000005	43.29701700000000	0.20768600000000	0.00000000000000	0.12700200000000	0.00000000000000	0.00000000000000	0.00000000000000	0.00000000000000	0.00000000000000	0.00000000000000	0.00000000000000	15.06427500000000	0.00000000000000	0.00000000000000	0.00000000000000	0.00000000000000	
20.93659300000000	10.97121200000000	736.59674199999995	43.38164300000000	0.20640700000000	0.00000000000000	0.12699700000000	0.00000000000000	0.00000000000000	0.00000000000000	0.00000000000000	0.00000000000000	0.00000000000000	0.00000000000000	15.17301400000000	0.00000000000000	0.00000000000000	0.00000000000000	0.00000000000000	
20.93825500000000	10.37878200000000	738.19016799999997	43.46717100000000	0.20510200000000	0.00000000000000	0.12699300000000	0.00000000000000	0.00000000000000	0.00000000000000	0.00000000000000	0.00000000000000	0.00000000000000	0.00000000000000	15.28320800000000	0.00000000000000	0.00000000000000	0.00000000000000	0.00000000000000	
20.93992300000000	9.77700800000000	739.77890300000001	43.55345900000000	0.20377200000000	0.00000000000000	0.12699100000000	0.00000000000000	0.00000000000000	0.00000000000000	0.00000000000000	0.00000000000000	0.00000000000000	0.00000000000000	15.39470800000000	0.00000000000000	0.00000000000000	0.00000000000000	0.00000000000000	
20.94158700000000	9.16659200000000	741.36137699999995	43.64038200000000	0.20242000000000	0.00000000000000	0.12698900000000	0.00000000000000	0.00000000000000	0.00000000000000	0.00000000000000	0.00000000000000	0.00000000000000	0.00000000000000	15.50737000000000	0.00000000000000	0.00000000000000	0.00000000000000	0.00000000000000	
20.94325900000000	8.54826300000000	742.93607399999996	43.72782800000000	0.20104800000000	0.00000000000000	0.12698800000000	0.00000000000000	0.00000000000000	0.00000000000000	0.00000000000000	0.00000000000000	0.00000000000000	0.00000000000000	15.62105300000000	0.00000000000000	0.00000000000000	0.00000000000000	0.00000000000000	
20.94492500000000	7.92277700000000	744.50153299999999	43.81569600000000	0.19965900000000	0.00000000000000	0.12698800000000	0.00000000000000	0.00000000000000	0.00000000000000	0.00000000000000	0.00000000000000	0.00000000000000	0.00000000000000	15.73562200000000	0.00000000000000	0.00000000000000	0.00000000000000	0.00000000000000	
20.94658600000000	7.29090700000000	746.05634699999996	43.90390100000000	0.19825700000000	0.00000000000000	0.12698900000000	0.00000000000000	0.00000000000000	0.00000000000000	0.00000000000000	0.00000000000000	0.00000000000000	0.00000000000000	15.85094700000000	0.00000000000000	0.00000000000000	0.00000000000000	0.00000000000000	
20.94825100000000	6.65344200000000	747.59916399999997	43.99237100000000	0.19684400000000	0.00000000000000	0.12699000000000	0.00000000000000	0.00000000000000	0.00000000000000	0.00000000000000	0.00000000000000	0.00000000000000	0.00000000000000	15.96690300000000	0.00000000000000	0.00000000000000	0.00000000000000	0.00000000000000	
20.94991800000000	6.01118100000000	749.12868500000002	44.08104800000000	0.19542300000000	0.00000000000000	0.12699200000000	0.00000000000000	0.00000000000000	0.00000000000000	0.00000000000000	0.00000000000000	0.00000000000000	0.00000000000000	16.08337000000000	0.00000000000000	0.00000000000000	0.00000000000000	0.00000000000000	
20.95159200000000	5.36493100000000	750.64366800000005	44.16988400000000	0.19399600000000	0.00000000000000	0.12699400000000	0.00000000000000	0.00000000000000	0.00000000000000	0.00000000000000	0.00000000000000	0.00000000000000	0.00000000000000	16.20023200000000	0.00000000000000	0.00000000000000	0.00000000000000	0.00000000000000	
20.95325800000000	4.71550000000000	752.14292300000000	44.25884900000000	0.19256800000000	0.00000000000000	0.12699700000000	0.00000000000000	0.00000000000000	0.00000000000000	0.00000000000000	0.00000000000000	0.00000000000000	0.00000000000000	16.31738000000000	0.00000000000000	0.00000000000000	0.00000000000000	0.00000000000000	
20.95492000000000	4.06369300000000	753.62531200000001	44.34792200000000	0.19114100000000	0.00000000000000	0.12699900000000	0.00000000000000	0.00000000000000	0.00000000000000	0.00000000000000	0.00000000000000	0.00000000000000	0.00000000000000	16.43470800000000	0.00000000000000	0.00000000000000	0.00000000000000	0.00000000000000	
20.95659300000000	3.41030700000000	755.08975599999997	44.43709600000000	0.18971800000000	0.00000000000000	0.12700200000000	0.00000000000000	0.00000000000000	0.00000000000000	0.00000000000000	0.00000000000000	0.00000000000000	0.00000000000000	16.55211800000000	0.00000000000000	0.00000000000000	0.00000000000000	0.00000000000000	
20.95825600000000	2.75613000000000	756.53522299999997	44.52637500000000	0.18830100000000	0.00000000000000	0.12700400000000	0.00000000000000	0.00000000000000	0.00000000000000	0.00000000000000	0.00000000000000	0.00000000000000	0.00000000000000	16.66951300000000	0.00000000000000	0.00000000000000	0.00000000000000	0.00000000000000	
20.95992000000000	2.10193200000000	757.96073999999999	44.61577700000000	0.18689400000000	0.00000000000000	0.12700600000000	0.00000000000000	0.00000000000000	0.00000000000000	0.00000000000000	0.00000000000000	0.00000000000000	0.00000000000000	16.78680300000000	0.00000000000000	0.00000000000000	0.00000000000000	0.00000000000000	
20.96159200000000	1.44846500000000	759.36538299999995	44.70532700000000	0.18549900000000	0.00000000000000	0.12700800000000	0.00000000000000	0.00000000000000	0.00000000000000	0.00000000000000	0.00000000000000	0.00000000000000	0.00000000000000	16.90390400000000	0.00000000000000	0.00000000000000	0.00000000000000	0.00000000000000	
20.96325200000000	0.79645800000000	760.74828300000001	44.79506500000000	0.18411900000000	0.00000000000000	0.12700900000000	0.00000000000000	0.00000000000000	0.00000000000000	0.00000000000000	0.00000000000000	0.00000000000000	0.00000000000000	17.02073500000000	0.00000000000000	0.00000000000000	0.00000000000000	0.00000000000000	
20.96492600000000	0.14661200000000	762.10862299999997	44.88503900000000	0.18275600000000	0.00000000000000	0.12701000000000	0.00000000000000	0.00000000000000	0.00000000000000	0.00000000000000	0.00000000000000	0.00000000000000	0.00000000000000	17.13721800000000	0.00000000000000	0.00000000000000	0.00000000000000	0.00000000000000	
20.96658500000000	-0.50040000000000	763.44563800000003	44.97530500000000	0.18141200000000	0.00000000000000	0.12701000000000	0.00000000000000	0.00000000000000	0.00000000000000	0.00000000000000	0.00000000000000	0.00000000000000	0.00000000000000	17.25328300000000	0.00000000000000	0.00000000000000	0.00000000000000	0.00000000000000	
20.96825900000000	-1.14394100000000	764.75861399999997	45.06593100000000	0.18009100000000	0.00000000000000	0.12700900000000	0.00000000000000	0.00000000000000	0.00000000000000	0.00000000000000	0.00000000000000	0.00000000000000	0.00000000000000	17.36886200000000	0.00000000000000	0.00000000000000	0.00000000000000	0.00000000000000	
20.96992300000000	-1.78340800000000	766.04688899999996	45.15699100000000	0.17879300000000	0.00000000000000	0.12700800000000	0.00000000000000	0.00000000000000	0.00000000000000	0.00000000000000	0.00000000000000	0.00000000000000	0.00000000000000	17.48389200000000	0.00000000000000	0.00000000000000	0.00000000000000	0.00000000000000	
